<?xml version="1.0" encoding="utf-8"?>
<!-- Generator: Adobe Illustrator 26.0.3, SVG Export Plug-In . SVG Version: 6.00 Build 0)  -->
<svg version="1.2" baseProfile="tiny" id="g-Africa_map-Artboard_1-interactions-img" xmlns="http://www.w3.org/2000/svg" xmlns:xlink="http://www.w3.org/1999/xlink"
	 x="0px" y="0px" viewBox="0 0 619 643" overflow="visible" xml:space="preserve">
<g>
	<path id="path-2_00000124140502718572158510000009485239633266367360_" fill="none" stroke="#181818" d="M166.895,367.812
		c62.172,30.39,124.066,29.833,185.681-1.67"/>
	<path id="path-1_00000080168471705116225690000016597937121929348232_" fill="none" stroke="#181818" d="M180.204,485.812
		c68.914-26.011,134.45-19.255,196.607,20.27"/>
	<path id="map-1_00000112590359443886078790000015511175199279026109_" fill="#2988BD" d="M383.317,469.732l-0.265,0.88l0.593,1.2
		l0.715,0.613l0.714,1.679l1.894,1.891l0.201,1.518l0.877,0.479l0.096,1.358l0.592,0.958l0.791,2.341l1.065,0.346l0.77,1.144
		l1.138,0.532l1.013,1.011l3.609,1.145l0.943,2.765l2.35,0.135l0.296,1.993l-0.439,2.283l1.502,1.754l0.844,2.07l1.779,0.109
		l1.521,0.507l0.597-0.264l2.136,0.959l1.367,0.321l-0.257,1.458l1.543,0.455l0.745,1.009l-2.394,0.153l-0.882,1.746l-3.014,0.971
		l-1.188-0.083l-1.399,1.028L402.3,507.2l-0.864,1.531l-1.619,1.316l-0.786-0.134l-0.361,0.976l-1.789,0.47l-1.291,1.157
		l-1.051,0.524l-1.276,4.555l-1.041,0.365l-1.418,1.232l-0.781,1.102l-3.998,0.907l0.183,0.684l-1.914,4.746l-0.507,0.943
		l-1.733,0.964l-2.101-0.322l-1.041,0.652l-1.541,0.074l-2.897-0.769l-0.63-0.736l-0.974,0.233l-1.212-0.527l-3.05-2.236
		l-1.753-0.03l-2.067,1.07l-1.242,2.8l-0.22,1.622l-1.259,1.488l-0.885-0.002l-0.51,0.731l-1.129,0.494l-1.022,1.67l-1.798,0.31
		l-0.7,1.356l-1.994-0.212l-2.003,0.336l-1.705-0.577l-1.331,0.573l-0.59-0.601l-0.104-2.324l1.426-1.723l0.349-0.836l-0.442-2.25
		l-0.825-0.995l0.138-0.681l-1.698-2.831l-0.513-1.232l-0.807-0.761l-1.178-0.447l-0.703-0.814l0.044-6.513l0.041-6.342l0.046-7.358
		l7.277,0.003l0.078-7.428l0.049-4.846l0.081-8.544l0.057-6.407l3.413-0.107l5.918-1.119l6.195-1.147l1.517,0.026l0.152,0.586
		l1.62,1.757l0.142,1.118l1.305-0.373l1.384-1.598l1.921-1.28l0.757,0.08l1.016-0.667l1.118,0.879l1.084-1.227l1.398-0.694
		l1.133,0.213l1.472-0.374L383.317,469.732z"/>
</g>
<style>
#g-Africa_map-Artboard_1-interactions-img rect, #g-Africa_map-Artboard_1-interactions-img circle, #g-Africa_map-Artboard_1-interactions-img path, #g-Africa_map-Artboard_1-interactions-img line, #g-Africa_map-Artboard_1-interactions-img polyline, #g-Africa_map-Artboard_1-interactions-img polygon { vector-effect: non-scaling-stroke; }
</style>
</svg>

