<?xml version="1.0" encoding="utf-8"?>
<!-- Generator: Adobe Illustrator 26.0.3, SVG Export Plug-In . SVG Version: 6.00 Build 0)  -->
<svg version="1.2" baseProfile="tiny" id="g-Covidbots-Artboard_1-interactions-img" xmlns="http://www.w3.org/2000/svg" xmlns:xlink="http://www.w3.org/1999/xlink"
	 x="0px" y="0px" viewBox="0 0 600 600" overflow="visible" xml:space="preserve">
<g>
	
		<path id="New_cases_00000085949466060570763070000018061124096284647845_" fill="none" stroke="#F2E5C3" stroke-width="2" stroke-linecap="round" stroke-linejoin="round" d="
		M45.155,527h0.522h0.522h0.522h0.522h0.522h0.522h0.522h0.522h0.522h0.522h0.522h0.522h0.522h0.522h0.522h0.522h0.522h0.522h0.522
		h0.522h0.522h0.522h0.522h0.522h0.522h0.522h0.522h0.522h0.522h0.522h0.522h0.522h0.522h0.522h0.522h0.522h0.522h0.522h0.522h0.522
		h0.522h0.522h0.522h0.522h0.522h0.522h0.522h0.522h0.522h0.522h0.522h0.522h0.522h0.522h0.522h0.522h0.522h0.522h0.522h0.522h0.522
		h0.522h0.522h0.522h0.522h0.522h0.522h0.522h0.522h0.522h0.522h0.522h0.522h0.522h0.522h0.522h0.522h0.522h0.522h0.522h0.522h0.522
		h0.522h0.522h0.522h0.522h0.522h0.522l0.522-0.229L92.136,527h0.522h0.522h0.522l0.522-0.115L94.746,527h0.522h0.522l0.522-0.401
		L96.834,527h0.522h0.522H98.4h0.522h0.522l0.522-0.115l0.522,0.115h0.522l0.522-0.287l0.522,0.287h0.522l0.522-0.115L103.62,527
		h0.522h0.522h0.522h0.522l0.522-0.057l0.522,0.057h0.522h0.522h0.522h0.522h0.522h0.522h0.522h0.522h0.522h0.522h0.522l0.522-0.057
		l0.522,0.057h0.522h0.522h0.522l0.522-0.057l0.522,0.057h0.522h0.522l0.522-0.229l0.522,0.229l0.522-0.057l0.522-0.057l0.522-0.057
		l0.522,0.172h0.522h0.522h0.522h0.522h0.522l0.522-0.172l0.522,0.172l0.522-0.115l0.522,0.115h0.522h0.522h0.522h0.522l0.522-0.115
		l0.522,0.115l0.522-0.344l0.522,0.344l0.522-0.688l0.522-0.287l0.522,0.86l0.522,0.115h0.522h0.522h0.522l0.522-0.573l0.522,0.573
		h0.522h0.522h0.522l0.522-2.064l0.522,2.064h0.522h0.522l0.522-2.866l0.522,2.866l0.522-2.981l0.522,2.981h0.522l0.522-2.752
		l0.522,2.752h0.522l0.522-2.236l0.522,2.236h0.522h0.522h0.522h0.522l0.522-4.873l0.522,4.873h0.522h0.522l0.522-7.051l0.522,7.051
		h0.522h0.522l0.522-5.733l0.522,5.733h0.522h0.522l0.522-3.669l0.522,3.669h0.522l0.522-3.038l0.522,3.038l0.522-3.726l0.522,3.726
		l0.522-5.159l0.522,5.159h0.522h0.522h0.522h0.522h0.522l0.522-9.86l0.522,9.86h0.522h0.522h0.522h0.522l0.522-8.484l0.522,8.484
		h0.522h0.522l0.522-5.389l0.522,5.389h0.522h0.522h0.522h0.522h0.522l0.522-18.631L168.349,527h0.522h0.522h0.522h0.522h0.522
		l0.522-5.217l0.522,5.217h0.522h0.522l0.522-15.937L174.091,527h0.522l0.522-7.109l0.522,7.109h0.522h0.522h0.522l0.522-19.319
		L178.267,527h0.522h0.522h0.522l0.522-5.962l0.522,5.962h0.522h0.522h0.522h0.522h0.522l0.522-20.294L184.532,527h0.522h0.522
		l0.522-14.389L186.62,527h0.522h0.522h0.522h0.522h0.522l0.522-2.694l0.522,2.694h0.522h0.522h0.522h0.522l0.522-104.335
		L193.406,527h0.522h0.522l0.522-11.637L195.494,527h0.522h0.522l0.522-21.039L197.582,527h0.522h0.522l0.522-18.001L199.67,527
		h0.522h0.522l0.522-20.638L201.758,527l0.522-20.58l0.522,20.58h0.522h0.522h0.522h0.522h0.522l0.522-68.391L206.456,527h0.522
		h0.522h0.522h0.522h0.522h0.522l0.522-22.358L210.632,527h0.522l0.522-31.014l0.522,11.695L212.72,527l0.522-28.148L213.764,527
		h0.522h0.522l0.522-6.249l0.522-10.319l0.522,4.414l0.522,7.051l0.522,1.491l0.522,0.344l0.522-2.809l0.522,0.975l0.522-1.147
		l0.522-1.662l0.522,4.128l0.522-0.745l0.522-26.714l0.522,18.115l0.522,5.274l0.522-5.045l0.522,4.873l0.522,2.121l0.522-1.089
		l0.522,6.994l0.522-6.65l0.522-2.064l0.522,2.752l0.522-0.115l0.522,0.401l0.522,1.032l0.522,1.548l0.522-1.949l0.522-0.688
		l0.522-1.777l0.522,2.35l0.522-2.866l0.522,4.586l0.522-0.459l0.522-1.49l0.522-2.408l0.522-5.389l0.522-3.268l0.522,2.981
		l0.522,5.217l0.522-3.554l0.522,2.637l0.522-0.573l0.522,0.459l0.522-1.49l0.522,5.733l0.522,1.548l0.522,3.497h0.522l0.522-41.104
		L241.431,527h0.522l0.522-34.224l0.522,21.039l0.522-7.166l0.522,7.968l0.522,0.344l0.522,5.389l0.522-28.664l0.522,12.956
		l0.522,6.306l0.522,3.554l0.522-0.172l0.522,1.491l0.522-2.924l0.522,2.522l0.522,0.516l0.522-2.694l0.522-5.159l0.522-0.516
		l0.522-2.924l0.522,0.229l0.522,8.427l0.522-0.688l0.522-1.376l0.522-2.465l0.522-1.433l0.522,3.325l0.522,8.886l0.522,1.433
		l0.522-1.376l0.522,0.917l0.522-9.344l0.522,5.446L259.179,527h0.522h0.522h0.522h0.522h0.522h0.522l0.522-171.293L263.355,527
		h0.522h0.522l0.522-135.063L265.443,527h0.522l0.522-58.416L267.009,527h0.522h0.522l0.522-66.843L269.097,527h0.522l0.522-67.99
		l0.522,67.99h0.522h0.522l0.522-51.652L272.751,527h0.522l0.522-28.32l0.522,28.32h0.522h0.522l0.522-118.438L276.405,527h0.522
		l0.522-51.996L277.971,527h0.522h0.522l0.522-78.825L280.059,527h0.522l0.522-59.448L281.625,527h0.522h0.522l0.522-47.696
		L283.714,527h0.522l0.522-55.263L285.28,527h0.522h0.522l0.522-44.142L287.368,527h0.522l0.522-36.173L288.934,527h0.522h0.522
		l0.522-35.944L291.022,527h0.522l0.522-66.098L292.588,527h0.522h0.522l0.522-184.192L294.676,527h0.522l0.522-19.549L296.242,527
		h0.522h0.522l0.522-52.97L298.33,527h0.522h0.522h0.522h0.522h0.522l0.522-69.079L301.984,527h0.522l0.522-35.772L303.55,527h0.522
		h0.522l0.522-66.27l0.522,66.27h0.522l0.522-47.753L307.204,527h0.522h0.522l0.522-71.716L309.292,527h0.522l0.522-52.225
		L310.858,527h0.522h0.522l0.522-68.964L312.946,527h0.522l0.522-71.544L314.512,527h0.522h0.522l0.522-108.004L316.6,527h0.522
		l0.522-79.799L318.166,527h0.522h0.522l0.522-113.565L320.254,527h0.522l0.522-102.845L321.82,527h0.522h0.522l0.522-147.445
		L323.908,527h0.522l0.522-96.539L325.474,527h0.522h0.522h0.522h0.522h0.522l0.522-78.653L329.128,527h0.522h0.522l0.522-145.267
		L331.216,527h0.522l0.522-80.889L332.782,527h0.522h0.522l0.522-273.164L334.871,527h0.522l0.522-342.816L336.437,527h0.522h0.522
		l0.522-330.72L338.525,527h0.522l0.522-329.917L340.091,527h0.522h0.522l0.522-256.08L342.179,527h0.522l0.522-261.755L343.745,527
		h0.522h0.522l0.522-489l0.522,489h0.522l0.522-421.583L347.399,527h0.522h0.522l0.522-469.91L349.487,527h0.522h0.522
		l0.522-343.217L351.575,527h0.522l0.522-322.293L353.141,527h0.522l0.522-233.952L354.707,527h0.522h0.522l0.522-251.15
		L356.795,527h0.522l0.522-169.172L358.361,527h0.522h0.522l0.522-179.663L360.449,527h0.522l0.522-137.012L362.015,527h0.522h0.522
		l0.522-164.471L364.103,527h0.522l0.522-84.787L365.669,527h0.522h0.522l0.522-113.45L367.757,527h0.522l0.522-378.817L369.323,527
		h0.522h0.522l0.522-88.054L371.411,527h0.522l0.522-151.286L372.977,527h0.522h0.522l0.522-93.042L375.065,527h0.522l0.522-67.073
		L376.631,527h0.522h0.522l0.522-56.009L378.719,527h0.522l0.522-13.816L380.285,527h0.522h0.522l0.522-46.607L382.373,527h0.522
		l0.522-34.683L383.939,527h0.522h0.522l0.522-125.833L386.028,527h0.522l0.522-49.76l0.522,49.76h0.522h0.522l0.522-61.111
		L389.682,527h0.522l0.522-34.912L391.248,527h0.522h0.522l0.522-39.384L393.336,527h0.522l0.522-324.127L394.902,527h0.522h0.522
		l0.522-29.466L396.99,527h0.522l0.522-14.446L398.556,527h0.522h0.522l0.522-24.536L400.644,527h0.522l0.522-18.115L402.21,527
		h0.522h0.522l0.522-11.867L404.298,527h0.522l0.522-14.733L405.864,527h0.522h0.522l0.522-9.115l0.522,9.115h0.522l0.522-13.415
		L409.518,527h0.522h0.522l0.522-14.332L411.606,527h0.522l0.522-30.842L413.172,527h0.522h0.522l0.522-89.086L415.26,527h0.522
		l0.522-127.266L416.826,527h0.522l0.522-277.291L418.392,527h0.522h0.522l0.522-246.105L420.48,527h0.522l0.522-199.957
		L422.046,527h0.522h0.522l0.522-402.837L424.134,527h0.522l0.522-145.84L425.7,527h0.522h0.522l0.522-447.266L427.788,527h0.522
		l0.522-147.732L429.354,527h0.522h0.522l0.522-300.738L431.442,527h0.522l0.522-126.636L433.008,527h0.522h0.522l0.522-232.691
		L435.096,527h0.522l0.522-112.246L436.663,527h0.522h0.522l0.522-277.578L438.751,527h0.522l0.522-131.279L440.317,527h0.522h0.522
		l0.522-172.268L442.405,527h0.522l0.522-64.55l0.522,64.55h0.522h0.522l0.522-142.63L446.059,527h0.522l0.522-47.925L447.625,527
		h0.522h0.522l0.522-81.519L449.713,527h0.522l0.522-42.365L451.279,527h0.522h0.522l0.522-74.411L453.367,527h0.522h0.522h0.522
		h0.522h0.522h0.522h0.522h0.522h0.522h0.522h0.522h0.522h0.522h0.522h0.522h0.522h0.522h0.522h0.522h0.522h0.522h0.522h0.522h0.522
		h0.522h0.522h0.522h0.522h0.522h0.522h0.522h0.522h0.522h0.522h0.522h0.522h0.522h0.522h0.522h0.522h0.522h0.522h0.522h0.522h0.522
		h0.522h0.522h0.522"/>
	<line fill="none" stroke="#2E2E2E" stroke-width="3" x1="274.969" y1="38" x2="274.969" y2="527"/>
	<g>
		<path fill="none" stroke="#181818" stroke-width="2" d="M155.968,135.286c21.218,42.301,55.113,67.654,101.685,76.059"/>
		<path fill="none" stroke="#181818" stroke-width="2" stroke-miterlimit="8" d="M249.902,201.763l7.751,9.297l-10.842,5.381"/>
	</g>
</g>
<style>
#g-Covidbots-Artboard_1-interactions-img rect, #g-Covidbots-Artboard_1-interactions-img circle, #g-Covidbots-Artboard_1-interactions-img path, #g-Covidbots-Artboard_1-interactions-img line, #g-Covidbots-Artboard_1-interactions-img polyline, #g-Covidbots-Artboard_1-interactions-img polygon { vector-effect: non-scaling-stroke; }
</style>
</svg>

